solid OpenSCAD_Model
  facet normal 0 0 -1
    outer loop
      vertex -8.2998 3 -50
      vertex -8 3.2998 -50
      vertex -8.08789 3.08789 -50
    endloop
  endfacet
  facet normal 0 0 -1
    outer loop
      vertex -3.2998 -10 -50
      vertex -3 -9.7002 -50
      vertex -3.08789 -9.91211 -50
    endloop
  endfacet
  facet normal -0 0 -1
    outer loop
      vertex -3 -9.7002 -50
      vertex -3.2998 -10 -50
      vertex -3 -8.2998 -50
    endloop
  endfacet
  facet normal 0 0 -1
    outer loop
      vertex -3.2998 -8 -50
      vertex -3 -8.2998 -50
      vertex -3.2998 -10 -50
    endloop
  endfacet
  facet normal 0 0 -1
    outer loop
      vertex -3 -8.2998 -50
      vertex -3.2998 -8 -50
      vertex -3.08789 -8.08789 -50
    endloop
  endfacet
  facet normal 0 0 -1
    outer loop
      vertex -3.2998 -10 -50
      vertex -6 -8 -50
      vertex -3.2998 -8 -50
    endloop
  endfacet
  facet normal 0 0 -1
    outer loop
      vertex -6 -8 -50
      vertex -7.06055 -6 -50
      vertex -6 -7.06055 -50
    endloop
  endfacet
  facet normal 0 0 -1
    outer loop
      vertex -6 -8 -50
      vertex -8 -6 -50
      vertex -7.06055 -6 -50
    endloop
  endfacet
  facet normal 0 0 -1
    outer loop
      vertex -10 -3.2998 -50
      vertex -8 -3.2998 -50
      vertex -8 -6 -50
    endloop
  endfacet
  facet normal 0 0 -1
    outer loop
      vertex -8 -3.2998 -50
      vertex -8.2998 -3 -50
      vertex -8.08789 -3.08789 -50
    endloop
  endfacet
  facet normal 0 0 -1
    outer loop
      vertex -9 -10 -50
      vertex -6 -8 -50
      vertex -3.2998 -10 -50
    endloop
  endfacet
  facet normal 0 0 -1
    outer loop
      vertex -9 -10 -50
      vertex -8 -6 -50
      vertex -6 -8 -50
    endloop
  endfacet
  facet normal 0 0 -1
    outer loop
      vertex -10 -9 -50
      vertex -8 -6 -50
      vertex -9 -10 -50
    endloop
  endfacet
  facet normal 0 0 -1
    outer loop
      vertex -10 -3.2998 -50
      vertex -8 -6 -50
      vertex -10 -9 -50
    endloop
  endfacet
  facet normal 0 0 -1
    outer loop
      vertex -10 -9 -50
      vertex -9 -10 -50
      vertex -9.70703 -9.70703 -50
    endloop
  endfacet
  facet normal 0 0 -1
    outer loop
      vertex -8 -3.2998 -50
      vertex -10 -3.2998 -50
      vertex -8.2998 -3 -50
    endloop
  endfacet
  facet normal -0 0 -1
    outer loop
      vertex -8.2998 -3 -50
      vertex -10 -3.2998 -50
      vertex -9.7002 -3 -50
    endloop
  endfacet
  facet normal 0 0 -1
    outer loop
      vertex -9.7002 -3 -50
      vertex -10 -3.2998 -50
      vertex -9.91211 -3.08789 -50
    endloop
  endfacet
  facet normal 0 0 -1
    outer loop
      vertex 9 -10 -50
      vertex 10 -9 -50
      vertex 9.70703 -9.70703 -50
    endloop
  endfacet
  facet normal 0 0 -1
    outer loop
      vertex 10 -9 -50
      vertex 8 -5.5 -50
      vertex 10 9 -50
    endloop
  endfacet
  facet normal 0 0 -1
    outer loop
      vertex 6 -8 -50
      vertex 10 -9 -50
      vertex 9 -10 -50
    endloop
  endfacet
  facet normal 0 0 -1
    outer loop
      vertex 8 7 -50
      vertex 10 9 -50
      vertex 8 -5.5 -50
    endloop
  endfacet
  facet normal 0 0 -1
    outer loop
      vertex 7.70703 7.70703 -50
      vertex 10 9 -50
      vertex 8 7 -50
    endloop
  endfacet
  facet normal 0 0 -1
    outer loop
      vertex 10 -9 -50
      vertex 7.85352 -5.85352 -50
      vertex 8 -5.5 -50
    endloop
  endfacet
  facet normal 0 0 -1
    outer loop
      vertex 10 -9 -50
      vertex 7.5 -6 -50
      vertex 7.85352 -5.85352 -50
    endloop
  endfacet
  facet normal 0 0 -1
    outer loop
      vertex 10 -9 -50
      vertex 6 -8 -50
      vertex 7.5 -6 -50
    endloop
  endfacet
  facet normal 0 0 -1
    outer loop
      vertex 6 -7.06055 -50
      vertex 7.5 -6 -50
      vertex 6 -8 -50
    endloop
  endfacet
  facet normal -0 0 -1
    outer loop
      vertex 7.5 -6 -50
      vertex 6 -7.06055 -50
      vertex 7.26758 -6 -50
    endloop
  endfacet
  facet normal 0 0 -1
    outer loop
      vertex 3.2998 -10 -50
      vertex 6 -8 -50
      vertex 9 -10 -50
    endloop
  endfacet
  facet normal 0 0 -1
    outer loop
      vertex 3.2998 -10 -50
      vertex 3.2998 -8 -50
      vertex 6 -8 -50
    endloop
  endfacet
  facet normal 0 0 -1
    outer loop
      vertex 3 -9.7002 -50
      vertex 3.2998 -10 -50
      vertex 3.08789 -9.91211 -50
    endloop
  endfacet
  facet normal 0 0 -1
    outer loop
      vertex 3.2998 -10 -50
      vertex 3 -9.7002 -50
      vertex 3.2998 -8 -50
    endloop
  endfacet
  facet normal 0 0 -1
    outer loop
      vertex 3 -8.2998 -50
      vertex 3.2998 -8 -50
      vertex 3 -9.7002 -50
    endloop
  endfacet
  facet normal 0 0 -1
    outer loop
      vertex 3.2998 -8 -50
      vertex 3 -8.2998 -50
      vertex 3.08789 -8.08789 -50
    endloop
  endfacet
  facet normal 0 -0 -1
    outer loop
      vertex 9 10 -50
      vertex 10 9 -50
      vertex 7.70703 7.70703 -50
    endloop
  endfacet
  facet normal 0 0 -1
    outer loop
      vertex 10 9 -50
      vertex 9 10 -50
      vertex 9.70703 9.70703 -50
    endloop
  endfacet
  facet normal 0 0 -1
    outer loop
      vertex 7 8 -50
      vertex 9 10 -50
      vertex 7.70703 7.70703 -50
    endloop
  endfacet
  facet normal 0 0 -1
    outer loop
      vertex -5.5 8 -50
      vertex 9 10 -50
      vertex 7 8 -50
    endloop
  endfacet
  facet normal 0 0 -1
    outer loop
      vertex -8 6 -50
      vertex -6 7.5 -50
      vertex -7.06055 6 -50
    endloop
  endfacet
  facet normal 0 0 -1
    outer loop
      vertex -9 10 -50
      vertex -6 7.5 -50
      vertex -8 6 -50
    endloop
  endfacet
  facet normal 0 0 -1
    outer loop
      vertex -10 3.2998 -50
      vertex -8 3.2998 -50
      vertex -8.2998 3 -50
    endloop
  endfacet
  facet normal 0 0 -1
    outer loop
      vertex -5.5 8 -50
      vertex -9 10 -50
      vertex 9 10 -50
    endloop
  endfacet
  facet normal 0 0 -1
    outer loop
      vertex -5.85352 7.85352 -50
      vertex -9 10 -50
      vertex -5.5 8 -50
    endloop
  endfacet
  facet normal 0 0 -1
    outer loop
      vertex -6 7.5 -50
      vertex -9 10 -50
      vertex -5.85352 7.85352 -50
    endloop
  endfacet
  facet normal 0 0 -1
    outer loop
      vertex -8 3.2998 -50
      vertex -10 3.2998 -50
      vertex -8 6 -50
    endloop
  endfacet
  facet normal 0 0 -1
    outer loop
      vertex -10 3.2998 -50
      vertex -8.2998 3 -50
      vertex -9.7002 3 -50
    endloop
  endfacet
  facet normal 0 0 -1
    outer loop
      vertex -8 6 -50
      vertex -10 9 -50
      vertex -9 10 -50
    endloop
  endfacet
  facet normal 0 0 -1
    outer loop
      vertex -10 3.2998 -50
      vertex -9.7002 3 -50
      vertex -9.91211 3.08789 -50
    endloop
  endfacet
  facet normal -0 0 -1
    outer loop
      vertex -8 6 -50
      vertex -10 3.2998 -50
      vertex -10 9 -50
    endloop
  endfacet
  facet normal 0 0 -1
    outer loop
      vertex -9 10 -50
      vertex -10 9 -50
      vertex -9.70703 9.70703 -50
    endloop
  endfacet
  facet normal -0 0 -1
    outer loop
      vertex 7.26758 -6 -50
      vertex 6 -7.06055 -50
      vertex 6.91406 -5.85352 -50
    endloop
  endfacet
  facet normal 0 0 -1
    outer loop
      vertex 6 -7.06055 -50
      vertex 4.14648 -3.08594 -50
      vertex 6.91406 -5.85352 -50
    endloop
  endfacet
  facet normal 0 0 -1
    outer loop
      vertex 2.09961 0 -50
      vertex 4 1 -50
      vertex 4 -2.73242 -50
    endloop
  endfacet
  facet normal 0 0 -1
    outer loop
      vertex 2.93945 -4 -50
      vertex 4.14648 -3.08594 -50
      vertex 6 -7.06055 -50
    endloop
  endfacet
  facet normal 0 0 -1
    outer loop
      vertex 2.93945 -4 -50
      vertex 4 -2.73242 -50
      vertex 4.14648 -3.08594 -50
    endloop
  endfacet
  facet normal 0 0 -1
    outer loop
      vertex 2.5 -4 -50
      vertex 4 -2.73242 -50
      vertex 2.93945 -4 -50
    endloop
  endfacet
  facet normal -0 0 -1
    outer loop
      vertex 4 -2.73242 -50
      vertex 2.5 -4 -50
      vertex 1.30957 -1.6416 -50
    endloop
  endfacet
  facet normal 0 0 -1
    outer loop
      vertex 1.30957 1.6416 -50
      vertex 4 1 -50
      vertex 2.09961 0 -50
    endloop
  endfacet
  facet normal 0 0 -1
    outer loop
      vertex 4 1 -50
      vertex 1.30957 1.6416 -50
      vertex 3.59766 2.5 -50
    endloop
  endfacet
  facet normal 0 0 -1
    outer loop
      vertex 4 -2.73242 -50
      vertex 1.30957 -1.6416 -50
      vertex 2.09961 0 -50
    endloop
  endfacet
  facet normal 0 0 -1
    outer loop
      vertex 1.21875 -3.75098 -50
      vertex 1.30957 -1.6416 -50
      vertex 2.5 -4 -50
    endloop
  endfacet
  facet normal 0 0 -1
    outer loop
      vertex 0.40332 -3.93262 -50
      vertex 1.21875 -3.75098 -50
      vertex 0.90332 -3.93262 -50
    endloop
  endfacet
  facet normal -0 0 -1
    outer loop
      vertex 1.21875 -3.75098 -50
      vertex 0.40332 -3.93262 -50
      vertex 0 -3.7002 -50
    endloop
  endfacet
  facet normal 0 0 -1
    outer loop
      vertex 1.21875 -3.75098 -50
      vertex 0 -3.7002 -50
      vertex 1.30957 -1.6416 -50
    endloop
  endfacet
  facet normal 0 0 -1
    outer loop
      vertex -0.467773 -2.04688 -50
      vertex 0 -3.7002 -50
      vertex -0.40332 -3.93262 -50
    endloop
  endfacet
  facet normal 0 0 -1
    outer loop
      vertex 0 -3.7002 -50
      vertex -0.467773 -2.04688 -50
      vertex 1.30957 -1.6416 -50
    endloop
  endfacet
  facet normal 0 0 -1
    outer loop
      vertex -0.65332 -4 -50
      vertex -0.467773 -2.04688 -50
      vertex -0.40332 -3.93262 -50
    endloop
  endfacet
  facet normal 0 0 -1
    outer loop
      vertex -2.93945 -4 -50
      vertex -0.467773 -2.04688 -50
      vertex -0.65332 -4 -50
    endloop
  endfacet
  facet normal 0 0 -1
    outer loop
      vertex -3.7002 0 -50
      vertex -1.8916 0.911133 -50
      vertex -1.8916 -0.911133 -50
    endloop
  endfacet
  facet normal -0 0 -1
    outer loop
      vertex -0.467773 -2.04688 -50
      vertex -2.93945 -4 -50
      vertex -1.8916 -0.911133 -50
    endloop
  endfacet
  facet normal 0 0 -1
    outer loop
      vertex -4 -2.5 -50
      vertex -1.8916 -0.911133 -50
      vertex -2.93945 -4 -50
    endloop
  endfacet
  facet normal 0 0 -1
    outer loop
      vertex -3.93262 0.40332 -50
      vertex -1.8916 0.911133 -50
      vertex -3.7002 0 -50
    endloop
  endfacet
  facet normal 0 0 -1
    outer loop
      vertex -4 2.93945 -50
      vertex -1.8916 0.911133 -50
      vertex -4 0.65332 -50
    endloop
  endfacet
  facet normal -0 0 -1
    outer loop
      vertex -1.8916 -0.911133 -50
      vertex -3.75098 -1.21875 -50
      vertex -3.7002 0 -50
    endloop
  endfacet
  facet normal 0 0 -1
    outer loop
      vertex -4 -2.5 -50
      vertex -2.93945 -4 -50
      vertex -4 -2.93945 -50
    endloop
  endfacet
  facet normal 0 0 -1
    outer loop
      vertex -6 -7.06055 -50
      vertex -4 -2.93945 -50
      vertex -2.93945 -4 -50
    endloop
  endfacet
  facet normal 0 0 -1
    outer loop
      vertex -4 -2.93945 -50
      vertex -6 -7.06055 -50
      vertex -7.06055 -6 -50
    endloop
  endfacet
  facet normal -0 0 -1
    outer loop
      vertex 3.59766 2.5 -50
      vertex 1.30957 1.6416 -50
      vertex 2.5 3.59766 -50
    endloop
  endfacet
  facet normal 0 0 -1
    outer loop
      vertex 1.30957 1.6416 -50
      vertex 1 4 -50
      vertex 2.5 3.59766 -50
    endloop
  endfacet
  facet normal 0 0 -1
    outer loop
      vertex -0.467773 2.04688 -50
      vertex 1 4 -50
      vertex 1.30957 1.6416 -50
    endloop
  endfacet
  facet normal 0 0 -1
    outer loop
      vertex -2.73242 4 -50
      vertex -0.467773 2.04688 -50
      vertex -1.8916 0.911133 -50
    endloop
  endfacet
  facet normal 0 0 -1
    outer loop
      vertex -0.467773 2.04688 -50
      vertex -2.73242 4 -50
      vertex 1 4 -50
    endloop
  endfacet
  facet normal 0 0 -1
    outer loop
      vertex -1.8916 0.911133 -50
      vertex -3.93262 0.40332 -50
      vertex -4 0.65332 -50
    endloop
  endfacet
  facet normal 0 0 -1
    outer loop
      vertex -1.8916 0.911133 -50
      vertex -4 2.93945 -50
      vertex -2.73242 4 -50
    endloop
  endfacet
  facet normal -0 0 -1
    outer loop
      vertex -2.73242 4 -50
      vertex -4 2.93945 -50
      vertex -3.08594 4.14648 -50
    endloop
  endfacet
  facet normal 0 0 -1
    outer loop
      vertex -4 2.93945 -50
      vertex -5.85352 6.91406 -50
      vertex -3.08594 4.14648 -50
    endloop
  endfacet
  facet normal -0 0 -1
    outer loop
      vertex -6 7.26758 -50
      vertex -7.06055 6 -50
      vertex -6 7.5 -50
    endloop
  endfacet
  facet normal -0 0 -1
    outer loop
      vertex -5.85352 6.91406 -50
      vertex -7.06055 6 -50
      vertex -6 7.26758 -50
    endloop
  endfacet
  facet normal 0 0 -1
    outer loop
      vertex -7.06055 6 -50
      vertex -5.85352 6.91406 -50
      vertex -4 2.93945 -50
    endloop
  endfacet
  facet normal 0 0 -1
    outer loop
      vertex -3.93262 -0.40332 -50
      vertex -3.75098 -1.21875 -50
      vertex -3.93262 -0.90332 -50
    endloop
  endfacet
  facet normal 0 0 -1
    outer loop
      vertex -3.75098 -1.21875 -50
      vertex -3.93262 -0.40332 -50
      vertex -3.7002 0 -50
    endloop
  endfacet
  facet normal 0 0 -1
    outer loop
      vertex -1.8916 -0.911133 -50
      vertex -4 -2.5 -50
      vertex -3.75098 -1.21875 -50
    endloop
  endfacet
  facet normal 0 0 1
    outer loop
      vertex -8.2998 -3 50
      vertex -8 -3.2998 50
      vertex -8.08789 -3.08789 50
    endloop
  endfacet
  facet normal -0 0 1
    outer loop
      vertex -3.93262 -0.40332 50
      vertex -3.75098 -1.21875 50
      vertex -3.7002 0 50
    endloop
  endfacet
  facet normal 0 0 1
    outer loop
      vertex -3.75098 -1.21875 50
      vertex -3.93262 -0.40332 50
      vertex -3.93262 -0.90332 50
    endloop
  endfacet
  facet normal 0 0 1
    outer loop
      vertex -1.8916 0.911133 50
      vertex -3.93262 0.40332 50
      vertex -3.7002 0 50
    endloop
  endfacet
  facet normal 0 0 1
    outer loop
      vertex -2.73242 4 50
      vertex -4 2.93945 50
      vertex -4 0.65332 50
    endloop
  endfacet
  facet normal 0 0 1
    outer loop
      vertex -5.85352 6.91406 50
      vertex -4 2.93945 50
      vertex -3.08594 4.14648 50
    endloop
  endfacet
  facet normal 0 0 1
    outer loop
      vertex -5.85352 6.91406 50
      vertex -7.06055 6 50
      vertex -4 2.93945 50
    endloop
  endfacet
  facet normal 0 0 1
    outer loop
      vertex -7.06055 6 50
      vertex -5.85352 6.91406 50
      vertex -6 7.26758 50
    endloop
  endfacet
  facet normal 0 0 1
    outer loop
      vertex -2.73242 4 50
      vertex -4 0.65332 50
      vertex -3.93262 0.40332 50
    endloop
  endfacet
  facet normal 0 0 1
    outer loop
      vertex -3.2998 -8 50
      vertex -3 -8.2998 50
      vertex -3.08789 -8.08789 50
    endloop
  endfacet
  facet normal 0 0 1
    outer loop
      vertex -3 -8.2998 50
      vertex -3.2998 -8 50
      vertex -3 -9.7002 50
    endloop
  endfacet
  facet normal 0 0 1
    outer loop
      vertex -3.2998 -10 50
      vertex -3 -9.7002 50
      vertex -3.2998 -8 50
    endloop
  endfacet
  facet normal 0 0 1
    outer loop
      vertex -3 -9.7002 50
      vertex -3.2998 -10 50
      vertex -3.08789 -9.91211 50
    endloop
  endfacet
  facet normal -0 0 1
    outer loop
      vertex -6 -8 50
      vertex -3.2998 -10 50
      vertex -3.2998 -8 50
    endloop
  endfacet
  facet normal -0 0 1
    outer loop
      vertex -8 -6 50
      vertex -6 -8 50
      vertex -7.06055 -6 50
    endloop
  endfacet
  facet normal 0 0 1
    outer loop
      vertex -10 -3.2998 50
      vertex -8 -3.2998 50
      vertex -8.2998 -3 50
    endloop
  endfacet
  facet normal 0 0 1
    outer loop
      vertex -6 -8 50
      vertex -9 -10 50
      vertex -3.2998 -10 50
    endloop
  endfacet
  facet normal 0 0 1
    outer loop
      vertex -8 -6 50
      vertex -9 -10 50
      vertex -6 -8 50
    endloop
  endfacet
  facet normal 0 0 1
    outer loop
      vertex -8 -3.2998 50
      vertex -10 -3.2998 50
      vertex -8 -6 50
    endloop
  endfacet
  facet normal 0 0 1
    outer loop
      vertex -10 -3.2998 50
      vertex -8.2998 -3 50
      vertex -9.7002 -3 50
    endloop
  endfacet
  facet normal 0 0 1
    outer loop
      vertex -8 -6 50
      vertex -10 -9 50
      vertex -9 -10 50
    endloop
  endfacet
  facet normal 0 0 1
    outer loop
      vertex -10 -3.2998 50
      vertex -9.7002 -3 50
      vertex -9.91211 -3.08789 50
    endloop
  endfacet
  facet normal 0 0 1
    outer loop
      vertex -8 -6 50
      vertex -10 -3.2998 50
      vertex -10 -9 50
    endloop
  endfacet
  facet normal 0 0 1
    outer loop
      vertex -9 -10 50
      vertex -10 -9 50
      vertex -9.70703 -9.70703 50
    endloop
  endfacet
  facet normal -0 0 1
    outer loop
      vertex 1.30957 1.6416 50
      vertex 4 1 50
      vertex 3.59766 2.5 50
    endloop
  endfacet
  facet normal 0 0 1
    outer loop
      vertex 4.14648 -3.08594 50
      vertex 6 -7.06055 50
      vertex 6.91406 -5.85352 50
    endloop
  endfacet
  facet normal 0 0 1
    outer loop
      vertex 4.14648 -3.08594 50
      vertex 2.93945 -4 50
      vertex 6 -7.06055 50
    endloop
  endfacet
  facet normal 0 0 1
    outer loop
      vertex 4 -2.73242 50
      vertex 2.93945 -4 50
      vertex 4.14648 -3.08594 50
    endloop
  endfacet
  facet normal 0 0 1
    outer loop
      vertex 4 1 50
      vertex 2.09961 0 50
      vertex 4 -2.73242 50
    endloop
  endfacet
  facet normal 0 0 1
    outer loop
      vertex 1.30957 1.6416 50
      vertex 3.59766 2.5 50
      vertex 2.5 3.59766 50
    endloop
  endfacet
  facet normal -0 0 1
    outer loop
      vertex 1.30957 -1.6416 50
      vertex 4 -2.73242 50
      vertex 2.09961 0 50
    endloop
  endfacet
  facet normal 0 -0 1
    outer loop
      vertex 2.5 -4 50
      vertex 4 -2.73242 50
      vertex 1.30957 -1.6416 50
    endloop
  endfacet
  facet normal 0 0 1
    outer loop
      vertex 4 1 50
      vertex 1.30957 1.6416 50
      vertex 2.09961 0 50
    endloop
  endfacet
  facet normal 0 0 1
    outer loop
      vertex 1 4 50
      vertex 1.30957 1.6416 50
      vertex 2.5 3.59766 50
    endloop
  endfacet
  facet normal 0 0 1
    outer loop
      vertex 1 4 50
      vertex -0.467773 2.04688 50
      vertex 1.30957 1.6416 50
    endloop
  endfacet
  facet normal -0 0 1
    outer loop
      vertex -2.73242 4 50
      vertex -0.467773 2.04688 50
      vertex 1 4 50
    endloop
  endfacet
  facet normal 0 0 1
    outer loop
      vertex -3.93262 0.40332 50
      vertex -1.8916 0.911133 50
      vertex -2.73242 4 50
    endloop
  endfacet
  facet normal 0 0 1
    outer loop
      vertex -0.467773 2.04688 50
      vertex -2.73242 4 50
      vertex -1.8916 0.911133 50
    endloop
  endfacet
  facet normal 0 0 1
    outer loop
      vertex 9 10 50
      vertex 10 9 50
      vertex 9.70703 9.70703 50
    endloop
  endfacet
  facet normal 0 0 1
    outer loop
      vertex 10 9 50
      vertex 8 -5.5 50
      vertex 10 -9 50
    endloop
  endfacet
  facet normal 0 0 1
    outer loop
      vertex 10 9 50
      vertex 9 10 50
      vertex 7.70703 7.70703 50
    endloop
  endfacet
  facet normal 0 0 1
    outer loop
      vertex 10 9 50
      vertex 8 7 50
      vertex 8 -5.5 50
    endloop
  endfacet
  facet normal -0 0 1
    outer loop
      vertex 7.85352 -5.85352 50
      vertex 10 -9 50
      vertex 8 -5.5 50
    endloop
  endfacet
  facet normal 0 0 1
    outer loop
      vertex 10 9 50
      vertex 7.70703 7.70703 50
      vertex 8 7 50
    endloop
  endfacet
  facet normal 0 0 1
    outer loop
      vertex 9 10 50
      vertex 7 8 50
      vertex 7.70703 7.70703 50
    endloop
  endfacet
  facet normal 0 0 1
    outer loop
      vertex 9 10 50
      vertex -5.5 8 50
      vertex 7 8 50
    endloop
  endfacet
  facet normal 0 0 1
    outer loop
      vertex -6 7.5 50
      vertex -7.06055 6 50
      vertex -6 7.26758 50
    endloop
  endfacet
  facet normal 0 0 1
    outer loop
      vertex -9 10 50
      vertex -6 7.5 50
      vertex -5.85352 7.85352 50
    endloop
  endfacet
  facet normal 0 0 1
    outer loop
      vertex -6 7.5 50
      vertex -8 6 50
      vertex -7.06055 6 50
    endloop
  endfacet
  facet normal 0 0 1
    outer loop
      vertex -10 3.2998 50
      vertex -8 3.2998 50
      vertex -8 6 50
    endloop
  endfacet
  facet normal 0 0 1
    outer loop
      vertex -8 3.2998 50
      vertex -8.2998 3 50
      vertex -8.08789 3.08789 50
    endloop
  endfacet
  facet normal -0 0 1
    outer loop
      vertex -9 10 50
      vertex -5.5 8 50
      vertex 9 10 50
    endloop
  endfacet
  facet normal 0 0 1
    outer loop
      vertex -9 10 50
      vertex -5.85352 7.85352 50
      vertex -5.5 8 50
    endloop
  endfacet
  facet normal 0 0 1
    outer loop
      vertex -6 7.5 50
      vertex -9 10 50
      vertex -8 6 50
    endloop
  endfacet
  facet normal -0 0 1
    outer loop
      vertex -10 9 50
      vertex -8 6 50
      vertex -9 10 50
    endloop
  endfacet
  facet normal 0 0 1
    outer loop
      vertex -10 3.2998 50
      vertex -8 6 50
      vertex -10 9 50
    endloop
  endfacet
  facet normal 0 0 1
    outer loop
      vertex -10 9 50
      vertex -9 10 50
      vertex -9.70703 9.70703 50
    endloop
  endfacet
  facet normal 0 0 1
    outer loop
      vertex -8 3.2998 50
      vertex -10 3.2998 50
      vertex -8.2998 3 50
    endloop
  endfacet
  facet normal 0 0 1
    outer loop
      vertex -8.2998 3 50
      vertex -10 3.2998 50
      vertex -9.7002 3 50
    endloop
  endfacet
  facet normal 0 0 1
    outer loop
      vertex -9.7002 3 50
      vertex -10 3.2998 50
      vertex -9.91211 3.08789 50
    endloop
  endfacet
  facet normal -0 0 1
    outer loop
      vertex 7.5 -6 50
      vertex 10 -9 50
      vertex 7.85352 -5.85352 50
    endloop
  endfacet
  facet normal 0 0 1
    outer loop
      vertex 10 -9 50
      vertex 9 -10 50
      vertex 9.70703 -9.70703 50
    endloop
  endfacet
  facet normal -0 0 1
    outer loop
      vertex 6 -8 50
      vertex 10 -9 50
      vertex 7.5 -6 50
    endloop
  endfacet
  facet normal 0 0 1
    outer loop
      vertex 6 -7.06055 50
      vertex 7.5 -6 50
      vertex 7.26758 -6 50
    endloop
  endfacet
  facet normal 0 0 1
    outer loop
      vertex 6 -7.06055 50
      vertex 7.26758 -6 50
      vertex 6.91406 -5.85352 50
    endloop
  endfacet
  facet normal 0 0 1
    outer loop
      vertex 7.5 -6 50
      vertex 6 -7.06055 50
      vertex 6 -8 50
    endloop
  endfacet
  facet normal 0 0 1
    outer loop
      vertex 10 -9 50
      vertex 6 -8 50
      vertex 9 -10 50
    endloop
  endfacet
  facet normal 0 0 1
    outer loop
      vertex 3.2998 -10 50
      vertex 6 -8 50
      vertex 3.2998 -8 50
    endloop
  endfacet
  facet normal 0 0 1
    outer loop
      vertex 6 -8 50
      vertex 3.2998 -10 50
      vertex 9 -10 50
    endloop
  endfacet
  facet normal 0 0 1
    outer loop
      vertex 3 -8.2998 50
      vertex 3.2998 -8 50
      vertex 3.08789 -8.08789 50
    endloop
  endfacet
  facet normal 0 0 1
    outer loop
      vertex 3.2998 -8 50
      vertex 3 -8.2998 50
      vertex 3.2998 -10 50
    endloop
  endfacet
  facet normal -0 0 1
    outer loop
      vertex 3 -9.7002 50
      vertex 3.2998 -10 50
      vertex 3 -8.2998 50
    endloop
  endfacet
  facet normal 0 0 1
    outer loop
      vertex 3.2998 -10 50
      vertex 3 -9.7002 50
      vertex 3.08789 -9.91211 50
    endloop
  endfacet
  facet normal 0 0 1
    outer loop
      vertex 4 -2.73242 50
      vertex 2.5 -4 50
      vertex 2.93945 -4 50
    endloop
  endfacet
  facet normal 0 0 1
    outer loop
      vertex 1.30957 -1.6416 50
      vertex 1.21875 -3.75098 50
      vertex 2.5 -4 50
    endloop
  endfacet
  facet normal -0 0 1
    outer loop
      vertex 0 -3.7002 50
      vertex 1.21875 -3.75098 50
      vertex 1.30957 -1.6416 50
    endloop
  endfacet
  facet normal 0 -0 1
    outer loop
      vertex 0.40332 -3.93262 50
      vertex 1.21875 -3.75098 50
      vertex 0 -3.7002 50
    endloop
  endfacet
  facet normal 0 0 1
    outer loop
      vertex 1.21875 -3.75098 50
      vertex 0.40332 -3.93262 50
      vertex 0.90332 -3.93262 50
    endloop
  endfacet
  facet normal -0 0 1
    outer loop
      vertex -0.467773 -2.04688 50
      vertex 0 -3.7002 50
      vertex 1.30957 -1.6416 50
    endloop
  endfacet
  facet normal 0 0 1
    outer loop
      vertex 0 -3.7002 50
      vertex -0.467773 -2.04688 50
      vertex -0.40332 -3.93262 50
    endloop
  endfacet
  facet normal 0 0 1
    outer loop
      vertex -0.467773 -2.04688 50
      vertex -0.65332 -4 50
      vertex -0.40332 -3.93262 50
    endloop
  endfacet
  facet normal 0 0 1
    outer loop
      vertex -2.93945 -4 50
      vertex -0.467773 -2.04688 50
      vertex -1.8916 -0.911133 50
    endloop
  endfacet
  facet normal 0 0 1
    outer loop
      vertex -0.467773 -2.04688 50
      vertex -2.93945 -4 50
      vertex -0.65332 -4 50
    endloop
  endfacet
  facet normal 0 0 1
    outer loop
      vertex -1.8916 0.911133 50
      vertex -3.7002 0 50
      vertex -1.8916 -0.911133 50
    endloop
  endfacet
  facet normal 0 0 1
    outer loop
      vertex -4 2.93945 50
      vertex -2.73242 4 50
      vertex -3.08594 4.14648 50
    endloop
  endfacet
  facet normal 0 0 1
    outer loop
      vertex -3.75098 -1.21875 50
      vertex -1.8916 -0.911133 50
      vertex -3.7002 0 50
    endloop
  endfacet
  facet normal 0 0 1
    outer loop
      vertex -4 -2.5 50
      vertex -1.8916 -0.911133 50
      vertex -3.75098 -1.21875 50
    endloop
  endfacet
  facet normal 0 0 1
    outer loop
      vertex -1.8916 -0.911133 50
      vertex -4 -2.5 50
      vertex -2.93945 -4 50
    endloop
  endfacet
  facet normal -0 0 1
    outer loop
      vertex -4 -2.93945 50
      vertex -2.93945 -4 50
      vertex -4 -2.5 50
    endloop
  endfacet
  facet normal 0 0 1
    outer loop
      vertex -4 -2.93945 50
      vertex -6 -7.06055 50
      vertex -2.93945 -4 50
    endloop
  endfacet
  facet normal 0 0 1
    outer loop
      vertex -6 -7.06055 50
      vertex -7.06055 -6 50
      vertex -6 -8 50
    endloop
  endfacet
  facet normal -0 0 1
    outer loop
      vertex -7.06055 -6 50
      vertex -6 -7.06055 50
      vertex -4 -2.93945 50
    endloop
  endfacet
  facet normal 0.923705 -0.383104 0
    outer loop
      vertex -3.08789 -9.91211 50
      vertex -3 -9.7002 -50
      vertex -3 -9.7002 50
    endloop
  endfacet
  facet normal 0.923705 -0.383104 0
    outer loop
      vertex -3 -9.7002 -50
      vertex -3.08789 -9.91211 50
      vertex -3.08789 -9.91211 -50
    endloop
  endfacet
  facet normal 1 -0 0
    outer loop
      vertex -3 -9.7002 50
      vertex -3 -8.2998 -50
      vertex -3 -8.2998 50
    endloop
  endfacet
  facet normal 1 0 0
    outer loop
      vertex -3 -8.2998 -50
      vertex -3 -9.7002 50
      vertex -3 -9.7002 -50
    endloop
  endfacet
  facet normal 0.923705 0.383104 0
    outer loop
      vertex -3 -8.2998 50
      vertex -3.08789 -8.08789 -50
      vertex -3.08789 -8.08789 50
    endloop
  endfacet
  facet normal 0.923705 0.383104 0
    outer loop
      vertex -3.08789 -8.08789 -50
      vertex -3 -8.2998 50
      vertex -3 -8.2998 -50
    endloop
  endfacet
  facet normal 0.383104 0.923705 -0
    outer loop
      vertex -3.08789 -8.08789 -50
      vertex -3.2998 -8 50
      vertex -3.08789 -8.08789 50
    endloop
  endfacet
  facet normal 0.383104 0.923705 0
    outer loop
      vertex -3.2998 -8 50
      vertex -3.08789 -8.08789 -50
      vertex -3.2998 -8 -50
    endloop
  endfacet
  facet normal 0 1 -0
    outer loop
      vertex -3.2998 -8 -50
      vertex -6 -8 50
      vertex -3.2998 -8 50
    endloop
  endfacet
  facet normal 0 1 0
    outer loop
      vertex -6 -8 50
      vertex -3.2998 -8 -50
      vertex -6 -8 -50
    endloop
  endfacet
  facet normal 1 -0 0
    outer loop
      vertex -6 -8 50
      vertex -6 -7.06055 -50
      vertex -6 -7.06055 50
    endloop
  endfacet
  facet normal 1 0 0
    outer loop
      vertex -6 -7.06055 -50
      vertex -6 -8 50
      vertex -6 -8 -50
    endloop
  endfacet
  facet normal 0.707107 -0.707107 0
    outer loop
      vertex -6 -7.06055 50
      vertex -2.93945 -4 -50
      vertex -2.93945 -4 50
    endloop
  endfacet
  facet normal 0.707107 -0.707107 0
    outer loop
      vertex -2.93945 -4 -50
      vertex -6 -7.06055 50
      vertex -6 -7.06055 -50
    endloop
  endfacet
  facet normal 0 -1 0
    outer loop
      vertex -2.93945 -4 -50
      vertex -0.65332 -4 50
      vertex -2.93945 -4 50
    endloop
  endfacet
  facet normal 0 -1 -0
    outer loop
      vertex -0.65332 -4 50
      vertex -2.93945 -4 -50
      vertex -0.65332 -4 -50
    endloop
  endfacet
  facet normal 0.260244 -0.965543 0
    outer loop
      vertex -0.65332 -4 -50
      vertex -0.40332 -3.93262 50
      vertex -0.65332 -4 50
    endloop
  endfacet
  facet normal 0.260244 -0.965543 0
    outer loop
      vertex -0.40332 -3.93262 50
      vertex -0.65332 -4 -50
      vertex -0.40332 -3.93262 -50
    endloop
  endfacet
  facet normal 0.499299 -0.86643 0
    outer loop
      vertex -0.40332 -3.93262 -50
      vertex 0 -3.7002 50
      vertex -0.40332 -3.93262 50
    endloop
  endfacet
  facet normal 0.499299 -0.86643 0
    outer loop
      vertex 0 -3.7002 50
      vertex -0.40332 -3.93262 -50
      vertex 0 -3.7002 -50
    endloop
  endfacet
  facet normal -0.499299 -0.86643 0
    outer loop
      vertex 0 -3.7002 -50
      vertex 0.40332 -3.93262 50
      vertex 0 -3.7002 50
    endloop
  endfacet
  facet normal -0.499299 -0.86643 -0
    outer loop
      vertex 0.40332 -3.93262 50
      vertex 0 -3.7002 -50
      vertex 0.40332 -3.93262 -50
    endloop
  endfacet
  facet normal 0 -1 0
    outer loop
      vertex 0.40332 -3.93262 -50
      vertex 0.90332 -3.93262 50
      vertex 0.40332 -3.93262 50
    endloop
  endfacet
  facet normal 0 -1 -0
    outer loop
      vertex 0.90332 -3.93262 50
      vertex 0.40332 -3.93262 -50
      vertex 0.90332 -3.93262 -50
    endloop
  endfacet
  facet normal 0.499026 -0.866587 0
    outer loop
      vertex 0.90332 -3.93262 -50
      vertex 1.21875 -3.75098 50
      vertex 0.90332 -3.93262 50
    endloop
  endfacet
  facet normal 0.499026 -0.866587 0
    outer loop
      vertex 1.21875 -3.75098 50
      vertex 0.90332 -3.93262 -50
      vertex 1.21875 -3.75098 -50
    endloop
  endfacet
  facet normal -0.19079 -0.981631 0
    outer loop
      vertex 1.21875 -3.75098 -50
      vertex 2.5 -4 50
      vertex 1.21875 -3.75098 50
    endloop
  endfacet
  facet normal -0.19079 -0.981631 -0
    outer loop
      vertex 2.5 -4 50
      vertex 1.21875 -3.75098 -50
      vertex 2.5 -4 -50
    endloop
  endfacet
  facet normal 0 -1 0
    outer loop
      vertex 2.5 -4 -50
      vertex 2.93945 -4 50
      vertex 2.5 -4 50
    endloop
  endfacet
  facet normal 0 -1 -0
    outer loop
      vertex 2.93945 -4 50
      vertex 2.5 -4 -50
      vertex 2.93945 -4 -50
    endloop
  endfacet
  facet normal -0.707107 -0.707107 0
    outer loop
      vertex 6 -7.06055 -50
      vertex 2.93945 -4 50
      vertex 2.93945 -4 -50
    endloop
  endfacet
  facet normal -0.707107 -0.707107 0
    outer loop
      vertex 2.93945 -4 50
      vertex 6 -7.06055 -50
      vertex 6 -7.06055 50
    endloop
  endfacet
  facet normal -1 0 0
    outer loop
      vertex 6 -8 -50
      vertex 6 -7.06055 50
      vertex 6 -7.06055 -50
    endloop
  endfacet
  facet normal -1 -0 0
    outer loop
      vertex 6 -7.06055 50
      vertex 6 -8 -50
      vertex 6 -8 50
    endloop
  endfacet
  facet normal 0 1 -0
    outer loop
      vertex 6 -8 -50
      vertex 3.2998 -8 50
      vertex 6 -8 50
    endloop
  endfacet
  facet normal 0 1 0
    outer loop
      vertex 3.2998 -8 50
      vertex 6 -8 -50
      vertex 3.2998 -8 -50
    endloop
  endfacet
  facet normal -0.383104 0.923705 0
    outer loop
      vertex 3.2998 -8 -50
      vertex 3.08789 -8.08789 50
      vertex 3.2998 -8 50
    endloop
  endfacet
  facet normal -0.383104 0.923705 0
    outer loop
      vertex 3.08789 -8.08789 50
      vertex 3.2998 -8 -50
      vertex 3.08789 -8.08789 -50
    endloop
  endfacet
  facet normal -0.923705 0.383104 0
    outer loop
      vertex 3 -8.2998 -50
      vertex 3.08789 -8.08789 50
      vertex 3.08789 -8.08789 -50
    endloop
  endfacet
  facet normal -0.923705 0.383104 0
    outer loop
      vertex 3.08789 -8.08789 50
      vertex 3 -8.2998 -50
      vertex 3 -8.2998 50
    endloop
  endfacet
  facet normal -1 0 0
    outer loop
      vertex 3 -9.7002 -50
      vertex 3 -8.2998 50
      vertex 3 -8.2998 -50
    endloop
  endfacet
  facet normal -1 -0 0
    outer loop
      vertex 3 -8.2998 50
      vertex 3 -9.7002 -50
      vertex 3 -9.7002 50
    endloop
  endfacet
  facet normal -0.923705 -0.383104 0
    outer loop
      vertex 3.08789 -9.91211 -50
      vertex 3 -9.7002 50
      vertex 3 -9.7002 -50
    endloop
  endfacet
  facet normal -0.923705 -0.383104 0
    outer loop
      vertex 3 -9.7002 50
      vertex 3.08789 -9.91211 -50
      vertex 3.08789 -9.91211 50
    endloop
  endfacet
  facet normal -0.383104 -0.923705 0
    outer loop
      vertex 3.08789 -9.91211 -50
      vertex 3.2998 -10 50
      vertex 3.08789 -9.91211 50
    endloop
  endfacet
  facet normal -0.383104 -0.923705 -0
    outer loop
      vertex 3.2998 -10 50
      vertex 3.08789 -9.91211 -50
      vertex 3.2998 -10 -50
    endloop
  endfacet
  facet normal 0 -1 0
    outer loop
      vertex 3.2998 -10 -50
      vertex 9 -10 50
      vertex 3.2998 -10 50
    endloop
  endfacet
  facet normal 0 -1 -0
    outer loop
      vertex 9 -10 50
      vertex 3.2998 -10 -50
      vertex 9 -10 -50
    endloop
  endfacet
  facet normal 0.382803 -0.92383 0
    outer loop
      vertex 9 -10 -50
      vertex 9.70703 -9.70703 50
      vertex 9 -10 50
    endloop
  endfacet
  facet normal 0.382803 -0.92383 0
    outer loop
      vertex 9.70703 -9.70703 50
      vertex 9 -10 -50
      vertex 9.70703 -9.70703 -50
    endloop
  endfacet
  facet normal 0.92383 -0.382803 0
    outer loop
      vertex 9.70703 -9.70703 50
      vertex 10 -9 -50
      vertex 10 -9 50
    endloop
  endfacet
  facet normal 0.92383 -0.382803 0
    outer loop
      vertex 10 -9 -50
      vertex 9.70703 -9.70703 50
      vertex 9.70703 -9.70703 -50
    endloop
  endfacet
  facet normal 1 -0 0
    outer loop
      vertex 10 -9 50
      vertex 10 9 -50
      vertex 10 9 50
    endloop
  endfacet
  facet normal 1 0 0
    outer loop
      vertex 10 9 -50
      vertex 10 -9 50
      vertex 10 -9 -50
    endloop
  endfacet
  facet normal 0.92383 0.382803 0
    outer loop
      vertex 10 9 50
      vertex 9.70703 9.70703 -50
      vertex 9.70703 9.70703 50
    endloop
  endfacet
  facet normal 0.92383 0.382803 0
    outer loop
      vertex 9.70703 9.70703 -50
      vertex 10 9 50
      vertex 10 9 -50
    endloop
  endfacet
  facet normal 0.382803 0.92383 -0
    outer loop
      vertex 9.70703 9.70703 -50
      vertex 9 10 50
      vertex 9.70703 9.70703 50
    endloop
  endfacet
  facet normal 0.382803 0.92383 0
    outer loop
      vertex 9 10 50
      vertex 9.70703 9.70703 -50
      vertex 9 10 -50
    endloop
  endfacet
  facet normal 0 1 -0
    outer loop
      vertex 9 10 -50
      vertex -9 10 50
      vertex 9 10 50
    endloop
  endfacet
  facet normal 0 1 0
    outer loop
      vertex -9 10 50
      vertex 9 10 -50
      vertex -9 10 -50
    endloop
  endfacet
  facet normal -0.382803 0.92383 0
    outer loop
      vertex -9 10 -50
      vertex -9.70703 9.70703 50
      vertex -9 10 50
    endloop
  endfacet
  facet normal -0.382803 0.92383 0
    outer loop
      vertex -9.70703 9.70703 50
      vertex -9 10 -50
      vertex -9.70703 9.70703 -50
    endloop
  endfacet
  facet normal -0.92383 0.382803 0
    outer loop
      vertex -10 9 -50
      vertex -9.70703 9.70703 50
      vertex -9.70703 9.70703 -50
    endloop
  endfacet
  facet normal -0.92383 0.382803 0
    outer loop
      vertex -9.70703 9.70703 50
      vertex -10 9 -50
      vertex -10 9 50
    endloop
  endfacet
  facet normal -1 0 0
    outer loop
      vertex -10 3.2998 -50
      vertex -10 9 50
      vertex -10 9 -50
    endloop
  endfacet
  facet normal -1 -0 0
    outer loop
      vertex -10 9 50
      vertex -10 3.2998 -50
      vertex -10 3.2998 50
    endloop
  endfacet
  facet normal -0.923705 -0.383104 0
    outer loop
      vertex -9.91211 3.08789 -50
      vertex -10 3.2998 50
      vertex -10 3.2998 -50
    endloop
  endfacet
  facet normal -0.923705 -0.383104 0
    outer loop
      vertex -10 3.2998 50
      vertex -9.91211 3.08789 -50
      vertex -9.91211 3.08789 50
    endloop
  endfacet
  facet normal -0.383104 -0.923705 0
    outer loop
      vertex -9.91211 3.08789 -50
      vertex -9.7002 3 50
      vertex -9.91211 3.08789 50
    endloop
  endfacet
  facet normal -0.383104 -0.923705 -0
    outer loop
      vertex -9.7002 3 50
      vertex -9.91211 3.08789 -50
      vertex -9.7002 3 -50
    endloop
  endfacet
  facet normal 0 -1 0
    outer loop
      vertex -9.7002 3 -50
      vertex -8.2998 3 50
      vertex -9.7002 3 50
    endloop
  endfacet
  facet normal 0 -1 -0
    outer loop
      vertex -8.2998 3 50
      vertex -9.7002 3 -50
      vertex -8.2998 3 -50
    endloop
  endfacet
  facet normal 0.383104 -0.923705 0
    outer loop
      vertex -8.2998 3 -50
      vertex -8.08789 3.08789 50
      vertex -8.2998 3 50
    endloop
  endfacet
  facet normal 0.383104 -0.923705 0
    outer loop
      vertex -8.08789 3.08789 50
      vertex -8.2998 3 -50
      vertex -8.08789 3.08789 -50
    endloop
  endfacet
  facet normal 0.923705 -0.383104 0
    outer loop
      vertex -8.08789 3.08789 50
      vertex -8 3.2998 -50
      vertex -8 3.2998 50
    endloop
  endfacet
  facet normal 0.923705 -0.383104 0
    outer loop
      vertex -8 3.2998 -50
      vertex -8.08789 3.08789 50
      vertex -8.08789 3.08789 -50
    endloop
  endfacet
  facet normal 1 -0 0
    outer loop
      vertex -8 3.2998 50
      vertex -8 6 -50
      vertex -8 6 50
    endloop
  endfacet
  facet normal 1 0 0
    outer loop
      vertex -8 6 -50
      vertex -8 3.2998 50
      vertex -8 3.2998 -50
    endloop
  endfacet
  facet normal 0 -1 0
    outer loop
      vertex -8 6 -50
      vertex -7.06055 6 50
      vertex -8 6 50
    endloop
  endfacet
  facet normal 0 -1 -0
    outer loop
      vertex -7.06055 6 50
      vertex -8 6 -50
      vertex -7.06055 6 -50
    endloop
  endfacet
  facet normal -0.707107 -0.707107 0
    outer loop
      vertex -4 2.93945 -50
      vertex -7.06055 6 50
      vertex -7.06055 6 -50
    endloop
  endfacet
  facet normal -0.707107 -0.707107 0
    outer loop
      vertex -7.06055 6 50
      vertex -4 2.93945 -50
      vertex -4 2.93945 50
    endloop
  endfacet
  facet normal -1 0 0
    outer loop
      vertex -4 0.65332 -50
      vertex -4 2.93945 50
      vertex -4 2.93945 -50
    endloop
  endfacet
  facet normal -1 -0 0
    outer loop
      vertex -4 2.93945 50
      vertex -4 0.65332 -50
      vertex -4 0.65332 50
    endloop
  endfacet
  facet normal -0.965543 -0.260244 0
    outer loop
      vertex -3.93262 0.40332 -50
      vertex -4 0.65332 50
      vertex -4 0.65332 -50
    endloop
  endfacet
  facet normal -0.965543 -0.260244 0
    outer loop
      vertex -4 0.65332 50
      vertex -3.93262 0.40332 -50
      vertex -3.93262 0.40332 50
    endloop
  endfacet
  facet normal -0.86643 -0.499299 0
    outer loop
      vertex -3.7002 0 -50
      vertex -3.93262 0.40332 50
      vertex -3.93262 0.40332 -50
    endloop
  endfacet
  facet normal -0.86643 -0.499299 0
    outer loop
      vertex -3.93262 0.40332 50
      vertex -3.7002 0 -50
      vertex -3.7002 0 50
    endloop
  endfacet
  facet normal -0.86643 0.499299 0
    outer loop
      vertex -3.93262 -0.40332 -50
      vertex -3.7002 0 50
      vertex -3.7002 0 -50
    endloop
  endfacet
  facet normal -0.86643 0.499299 0
    outer loop
      vertex -3.7002 0 50
      vertex -3.93262 -0.40332 -50
      vertex -3.93262 -0.40332 50
    endloop
  endfacet
  facet normal -1 0 0
    outer loop
      vertex -3.93262 -0.90332 -50
      vertex -3.93262 -0.40332 50
      vertex -3.93262 -0.40332 -50
    endloop
  endfacet
  facet normal -1 -0 0
    outer loop
      vertex -3.93262 -0.40332 50
      vertex -3.93262 -0.90332 -50
      vertex -3.93262 -0.90332 50
    endloop
  endfacet
  facet normal -0.866587 -0.499026 0
    outer loop
      vertex -3.75098 -1.21875 -50
      vertex -3.93262 -0.90332 50
      vertex -3.93262 -0.90332 -50
    endloop
  endfacet
  facet normal -0.866587 -0.499026 0
    outer loop
      vertex -3.93262 -0.90332 50
      vertex -3.75098 -1.21875 -50
      vertex -3.75098 -1.21875 50
    endloop
  endfacet
  facet normal -0.981631 0.19079 0
    outer loop
      vertex -4 -2.5 -50
      vertex -3.75098 -1.21875 50
      vertex -3.75098 -1.21875 -50
    endloop
  endfacet
  facet normal -0.981631 0.19079 0
    outer loop
      vertex -3.75098 -1.21875 50
      vertex -4 -2.5 -50
      vertex -4 -2.5 50
    endloop
  endfacet
  facet normal -1 0 0
    outer loop
      vertex -4 -2.93945 -50
      vertex -4 -2.5 50
      vertex -4 -2.5 -50
    endloop
  endfacet
  facet normal -1 -0 0
    outer loop
      vertex -4 -2.5 50
      vertex -4 -2.93945 -50
      vertex -4 -2.93945 50
    endloop
  endfacet
  facet normal -0.707107 0.707107 0
    outer loop
      vertex -7.06055 -6 -50
      vertex -4 -2.93945 50
      vertex -4 -2.93945 -50
    endloop
  endfacet
  facet normal -0.707107 0.707107 0
    outer loop
      vertex -4 -2.93945 50
      vertex -7.06055 -6 -50
      vertex -7.06055 -6 50
    endloop
  endfacet
  facet normal 0 1 -0
    outer loop
      vertex -7.06055 -6 -50
      vertex -8 -6 50
      vertex -7.06055 -6 50
    endloop
  endfacet
  facet normal 0 1 0
    outer loop
      vertex -8 -6 50
      vertex -7.06055 -6 -50
      vertex -8 -6 -50
    endloop
  endfacet
  facet normal 1 -0 0
    outer loop
      vertex -8 -6 50
      vertex -8 -3.2998 -50
      vertex -8 -3.2998 50
    endloop
  endfacet
  facet normal 1 0 0
    outer loop
      vertex -8 -3.2998 -50
      vertex -8 -6 50
      vertex -8 -6 -50
    endloop
  endfacet
  facet normal 0.923705 0.383104 0
    outer loop
      vertex -8 -3.2998 50
      vertex -8.08789 -3.08789 -50
      vertex -8.08789 -3.08789 50
    endloop
  endfacet
  facet normal 0.923705 0.383104 0
    outer loop
      vertex -8.08789 -3.08789 -50
      vertex -8 -3.2998 50
      vertex -8 -3.2998 -50
    endloop
  endfacet
  facet normal 0.383104 0.923705 -0
    outer loop
      vertex -8.08789 -3.08789 -50
      vertex -8.2998 -3 50
      vertex -8.08789 -3.08789 50
    endloop
  endfacet
  facet normal 0.383104 0.923705 0
    outer loop
      vertex -8.2998 -3 50
      vertex -8.08789 -3.08789 -50
      vertex -8.2998 -3 -50
    endloop
  endfacet
  facet normal 0 1 -0
    outer loop
      vertex -8.2998 -3 -50
      vertex -9.7002 -3 50
      vertex -8.2998 -3 50
    endloop
  endfacet
  facet normal 0 1 0
    outer loop
      vertex -9.7002 -3 50
      vertex -8.2998 -3 -50
      vertex -9.7002 -3 -50
    endloop
  endfacet
  facet normal -0.383104 0.923705 0
    outer loop
      vertex -9.7002 -3 -50
      vertex -9.91211 -3.08789 50
      vertex -9.7002 -3 50
    endloop
  endfacet
  facet normal -0.383104 0.923705 0
    outer loop
      vertex -9.91211 -3.08789 50
      vertex -9.7002 -3 -50
      vertex -9.91211 -3.08789 -50
    endloop
  endfacet
  facet normal -0.923705 0.383104 0
    outer loop
      vertex -10 -3.2998 -50
      vertex -9.91211 -3.08789 50
      vertex -9.91211 -3.08789 -50
    endloop
  endfacet
  facet normal -0.923705 0.383104 0
    outer loop
      vertex -9.91211 -3.08789 50
      vertex -10 -3.2998 -50
      vertex -10 -3.2998 50
    endloop
  endfacet
  facet normal -1 0 0
    outer loop
      vertex -10 -9 -50
      vertex -10 -3.2998 50
      vertex -10 -3.2998 -50
    endloop
  endfacet
  facet normal -1 -0 0
    outer loop
      vertex -10 -3.2998 50
      vertex -10 -9 -50
      vertex -10 -9 50
    endloop
  endfacet
  facet normal -0.92383 -0.382803 0
    outer loop
      vertex -9.70703 -9.70703 -50
      vertex -10 -9 50
      vertex -10 -9 -50
    endloop
  endfacet
  facet normal -0.92383 -0.382803 0
    outer loop
      vertex -10 -9 50
      vertex -9.70703 -9.70703 -50
      vertex -9.70703 -9.70703 50
    endloop
  endfacet
  facet normal -0.382803 -0.92383 0
    outer loop
      vertex -9.70703 -9.70703 -50
      vertex -9 -10 50
      vertex -9.70703 -9.70703 50
    endloop
  endfacet
  facet normal -0.382803 -0.92383 -0
    outer loop
      vertex -9 -10 50
      vertex -9.70703 -9.70703 -50
      vertex -9 -10 -50
    endloop
  endfacet
  facet normal 0 -1 0
    outer loop
      vertex -9 -10 -50
      vertex -3.2998 -10 50
      vertex -9 -10 50
    endloop
  endfacet
  facet normal 0 -1 -0
    outer loop
      vertex -3.2998 -10 50
      vertex -9 -10 -50
      vertex -3.2998 -10 -50
    endloop
  endfacet
  facet normal 0.383104 -0.923705 0
    outer loop
      vertex -3.2998 -10 -50
      vertex -3.08789 -9.91211 50
      vertex -3.2998 -10 50
    endloop
  endfacet
  facet normal 0.383104 -0.923705 0
    outer loop
      vertex -3.08789 -9.91211 50
      vertex -3.2998 -10 -50
      vertex -3.08789 -9.91211 -50
    endloop
  endfacet
  facet normal 0.382803 0.92383 -0
    outer loop
      vertex 7.26758 -6 -50
      vertex 6.91406 -5.85352 50
      vertex 7.26758 -6 50
    endloop
  endfacet
  facet normal 0.382803 0.92383 0
    outer loop
      vertex 6.91406 -5.85352 50
      vertex 7.26758 -6 -50
      vertex 6.91406 -5.85352 -50
    endloop
  endfacet
  facet normal 0.707107 0.707107 0
    outer loop
      vertex 6.91406 -5.85352 50
      vertex 4.14648 -3.08594 -50
      vertex 4.14648 -3.08594 50
    endloop
  endfacet
  facet normal 0.707107 0.707107 0
    outer loop
      vertex 4.14648 -3.08594 -50
      vertex 6.91406 -5.85352 50
      vertex 6.91406 -5.85352 -50
    endloop
  endfacet
  facet normal 0.92383 0.382803 0
    outer loop
      vertex 4.14648 -3.08594 50
      vertex 4 -2.73242 -50
      vertex 4 -2.73242 50
    endloop
  endfacet
  facet normal 0.92383 0.382803 0
    outer loop
      vertex 4 -2.73242 -50
      vertex 4.14648 -3.08594 50
      vertex 4.14648 -3.08594 -50
    endloop
  endfacet
  facet normal 1 -0 0
    outer loop
      vertex 4 -2.73242 50
      vertex 4 1 -50
      vertex 4 1 50
    endloop
  endfacet
  facet normal 1 0 0
    outer loop
      vertex 4 1 -50
      vertex 4 -2.73242 50
      vertex 4 -2.73242 -50
    endloop
  endfacet
  facet normal 0.965858 0.259071 0
    outer loop
      vertex 4 1 50
      vertex 3.59766 2.5 -50
      vertex 3.59766 2.5 50
    endloop
  endfacet
  facet normal 0.965858 0.259071 0
    outer loop
      vertex 3.59766 2.5 -50
      vertex 4 1 50
      vertex 4 1 -50
    endloop
  endfacet
  facet normal 0.707107 0.707107 0
    outer loop
      vertex 3.59766 2.5 50
      vertex 2.5 3.59766 -50
      vertex 2.5 3.59766 50
    endloop
  endfacet
  facet normal 0.707107 0.707107 0
    outer loop
      vertex 2.5 3.59766 -50
      vertex 3.59766 2.5 50
      vertex 3.59766 2.5 -50
    endloop
  endfacet
  facet normal 0.259071 0.965858 -0
    outer loop
      vertex 2.5 3.59766 -50
      vertex 1 4 50
      vertex 2.5 3.59766 50
    endloop
  endfacet
  facet normal 0.259071 0.965858 0
    outer loop
      vertex 1 4 50
      vertex 2.5 3.59766 -50
      vertex 1 4 -50
    endloop
  endfacet
  facet normal 0 1 -0
    outer loop
      vertex 1 4 -50
      vertex -2.73242 4 50
      vertex 1 4 50
    endloop
  endfacet
  facet normal 0 1 0
    outer loop
      vertex -2.73242 4 50
      vertex 1 4 -50
      vertex -2.73242 4 -50
    endloop
  endfacet
  facet normal 0.382803 0.92383 -0
    outer loop
      vertex -2.73242 4 -50
      vertex -3.08594 4.14648 50
      vertex -2.73242 4 50
    endloop
  endfacet
  facet normal 0.382803 0.92383 0
    outer loop
      vertex -3.08594 4.14648 50
      vertex -2.73242 4 -50
      vertex -3.08594 4.14648 -50
    endloop
  endfacet
  facet normal 0.707107 0.707107 0
    outer loop
      vertex -3.08594 4.14648 50
      vertex -5.85352 6.91406 -50
      vertex -5.85352 6.91406 50
    endloop
  endfacet
  facet normal 0.707107 0.707107 0
    outer loop
      vertex -5.85352 6.91406 -50
      vertex -3.08594 4.14648 50
      vertex -3.08594 4.14648 -50
    endloop
  endfacet
  facet normal 0.92383 0.382803 0
    outer loop
      vertex -5.85352 6.91406 50
      vertex -6 7.26758 -50
      vertex -6 7.26758 50
    endloop
  endfacet
  facet normal 0.92383 0.382803 0
    outer loop
      vertex -6 7.26758 -50
      vertex -5.85352 6.91406 50
      vertex -5.85352 6.91406 -50
    endloop
  endfacet
  facet normal 1 -0 0
    outer loop
      vertex -6 7.26758 50
      vertex -6 7.5 -50
      vertex -6 7.5 50
    endloop
  endfacet
  facet normal 1 0 0
    outer loop
      vertex -6 7.5 -50
      vertex -6 7.26758 50
      vertex -6 7.26758 -50
    endloop
  endfacet
  facet normal 0.92383 -0.382803 0
    outer loop
      vertex -6 7.5 50
      vertex -5.85352 7.85352 -50
      vertex -5.85352 7.85352 50
    endloop
  endfacet
  facet normal 0.92383 -0.382803 0
    outer loop
      vertex -5.85352 7.85352 -50
      vertex -6 7.5 50
      vertex -6 7.5 -50
    endloop
  endfacet
  facet normal 0.382803 -0.92383 0
    outer loop
      vertex -5.85352 7.85352 -50
      vertex -5.5 8 50
      vertex -5.85352 7.85352 50
    endloop
  endfacet
  facet normal 0.382803 -0.92383 0
    outer loop
      vertex -5.5 8 50
      vertex -5.85352 7.85352 -50
      vertex -5.5 8 -50
    endloop
  endfacet
  facet normal 0 -1 0
    outer loop
      vertex -5.5 8 -50
      vertex 7 8 50
      vertex -5.5 8 50
    endloop
  endfacet
  facet normal 0 -1 -0
    outer loop
      vertex 7 8 50
      vertex -5.5 8 -50
      vertex 7 8 -50
    endloop
  endfacet
  facet normal -0.382803 -0.92383 0
    outer loop
      vertex 7 8 -50
      vertex 7.70703 7.70703 50
      vertex 7 8 50
    endloop
  endfacet
  facet normal -0.382803 -0.92383 -0
    outer loop
      vertex 7.70703 7.70703 50
      vertex 7 8 -50
      vertex 7.70703 7.70703 -50
    endloop
  endfacet
  facet normal -0.92383 -0.382803 0
    outer loop
      vertex 8 7 -50
      vertex 7.70703 7.70703 50
      vertex 7.70703 7.70703 -50
    endloop
  endfacet
  facet normal -0.92383 -0.382803 0
    outer loop
      vertex 7.70703 7.70703 50
      vertex 8 7 -50
      vertex 8 7 50
    endloop
  endfacet
  facet normal -1 0 0
    outer loop
      vertex 8 -5.5 -50
      vertex 8 7 50
      vertex 8 7 -50
    endloop
  endfacet
  facet normal -1 -0 0
    outer loop
      vertex 8 7 50
      vertex 8 -5.5 -50
      vertex 8 -5.5 50
    endloop
  endfacet
  facet normal -0.92383 0.382803 0
    outer loop
      vertex 7.85352 -5.85352 -50
      vertex 8 -5.5 50
      vertex 8 -5.5 -50
    endloop
  endfacet
  facet normal -0.92383 0.382803 0
    outer loop
      vertex 8 -5.5 50
      vertex 7.85352 -5.85352 -50
      vertex 7.85352 -5.85352 50
    endloop
  endfacet
  facet normal -0.382803 0.92383 0
    outer loop
      vertex 7.85352 -5.85352 -50
      vertex 7.5 -6 50
      vertex 7.85352 -5.85352 50
    endloop
  endfacet
  facet normal -0.382803 0.92383 0
    outer loop
      vertex 7.5 -6 50
      vertex 7.85352 -5.85352 -50
      vertex 7.5 -6 -50
    endloop
  endfacet
  facet normal 0 1 -0
    outer loop
      vertex 7.5 -6 -50
      vertex 7.26758 -6 50
      vertex 7.5 -6 50
    endloop
  endfacet
  facet normal 0 1 0
    outer loop
      vertex 7.26758 -6 50
      vertex 7.5 -6 -50
      vertex 7.26758 -6 -50
    endloop
  endfacet
  facet normal 1 -0 0
    outer loop
      vertex -1.8916 -0.911133 50
      vertex -1.8916 0.911133 -50
      vertex -1.8916 0.911133 50
    endloop
  endfacet
  facet normal 1 0 0
    outer loop
      vertex -1.8916 0.911133 -50
      vertex -1.8916 -0.911133 50
      vertex -1.8916 -0.911133 -50
    endloop
  endfacet
  facet normal 0.623583 -0.781757 0
    outer loop
      vertex -1.8916 0.911133 -50
      vertex -0.467773 2.04688 50
      vertex -1.8916 0.911133 50
    endloop
  endfacet
  facet normal 0.623583 -0.781757 0
    outer loop
      vertex -0.467773 2.04688 50
      vertex -1.8916 0.911133 -50
      vertex -0.467773 2.04688 -50
    endloop
  endfacet
  facet normal -0.222316 -0.974975 0
    outer loop
      vertex -0.467773 2.04688 -50
      vertex 1.30957 1.6416 50
      vertex -0.467773 2.04688 50
    endloop
  endfacet
  facet normal -0.222316 -0.974975 -0
    outer loop
      vertex 1.30957 1.6416 50
      vertex -0.467773 2.04688 -50
      vertex 1.30957 1.6416 -50
    endloop
  endfacet
  facet normal -0.901079 -0.433654 0
    outer loop
      vertex 2.09961 0 -50
      vertex 1.30957 1.6416 50
      vertex 1.30957 1.6416 -50
    endloop
  endfacet
  facet normal -0.901079 -0.433654 0
    outer loop
      vertex 1.30957 1.6416 50
      vertex 2.09961 0 -50
      vertex 2.09961 0 50
    endloop
  endfacet
  facet normal -0.901079 0.433654 0
    outer loop
      vertex 1.30957 -1.6416 -50
      vertex 2.09961 0 50
      vertex 2.09961 0 -50
    endloop
  endfacet
  facet normal -0.901079 0.433654 0
    outer loop
      vertex 2.09961 0 50
      vertex 1.30957 -1.6416 -50
      vertex 1.30957 -1.6416 50
    endloop
  endfacet
  facet normal -0.222316 0.974975 0
    outer loop
      vertex 1.30957 -1.6416 -50
      vertex -0.467773 -2.04688 50
      vertex 1.30957 -1.6416 50
    endloop
  endfacet
  facet normal -0.222316 0.974975 0
    outer loop
      vertex -0.467773 -2.04688 50
      vertex 1.30957 -1.6416 -50
      vertex -0.467773 -2.04688 -50
    endloop
  endfacet
  facet normal 0.623583 0.781757 -0
    outer loop
      vertex -0.467773 -2.04688 -50
      vertex -1.8916 -0.911133 50
      vertex -0.467773 -2.04688 50
    endloop
  endfacet
  facet normal 0.623583 0.781757 0
    outer loop
      vertex -1.8916 -0.911133 50
      vertex -0.467773 -2.04688 -50
      vertex -1.8916 -0.911133 -50
    endloop
  endfacet
endsolid OpenSCAD_Model
